<svg id="Layer_1" data-name="Layer 1" xmlns="http://www.w3.org/2000/svg" viewBox="0 0 5529 420.08"><defs><style>.cls-1{fill:#c9d9f2;}</style></defs><title>coulds2</title><g id="Layer_3" data-name="Layer 3"><path class="cls-1" d="M3240.23,153a30.17,30.17,0,0,0,.48-5h0c0-15-10.7-25.91-25.7-25.91h0a25.91,25.91,0,0,0-24,17.08,25.44,25.44,0,0,0-25.38-22.18h-15.42a32.47,32.47,0,0,0,.81-6h0c0-14.09-12-25.63-26-25.63h0a25.81,25.81,0,0,0-25.56,25.67h.06a24.26,24.26,0,0,0,.66,5.54,25.92,25.92,0,0,0-23.63,25.46h0a27.53,27.53,0,0,0,.85,6.69A25.78,25.78,0,0,0,3053,174.41v-.18a26,26,0,0,0,25.69,25.85H3226.3a26,26,0,0,0,25.7-25.85v.09A25.3,25.3,0,0,0,3240.23,153Z"/><path class="cls-1" d="M2628.3,285.92v0Z"/><path class="cls-1" d="M2561.7,286s0-.05,0-.08,0-.07,0-.11Z"/><path class="cls-1" d="M2458.35,350.22h0Z"/><path class="cls-1" d="M2730.12,286s0-.05,0-.08,0-.07,0-.11Z"/><path class="cls-1" d="M2817.33,327.4a24.51,24.51,0,0,0,1.82-8.32h0a24.82,24.82,0,0,0-24-24.46,25.49,25.49,0,0,0,1.56-9,24.49,24.49,0,0,0-24.39-24.55h-17.79a24.52,24.52,0,0,0-24.42,24.49c0,3.05.46,6.51,1.5,8.51H2701.4c-13.51,0-25.4,11.49-25.4,25v.16c0,2.19,1.13,3.84,1.67,6.84h-26c-.62,0-1.23-.41-1.84-.36a27.39,27.39,0,0,0,.9-6.64h0a24.82,24.82,0,0,0-24-24.46,25.49,25.49,0,0,0,1.56-9,24.49,24.49,0,0,0-24.39-24.55h-17.79a24.52,24.52,0,0,0-24.42,24.49c0,3.05.46,6.51,1.5,8.51H2533a25.38,25.38,0,0,0-25,25v.16c0,2.19.72,3.84,1.26,6.84h-26c-13.5,0-24.9,11-24.9,24.47s11.4,24.53,24.9,24.53h156.61a24.25,24.25,0,0,0,5.88-.72,24.68,24.68,0,0,0,5.92.72h156.61c13.51,0,23.71-11.42,23.71-24.93h0A24.4,24.4,0,0,0,2817.33,327.4Z"/><path class="cls-1" d="M2796.72,285.92v0Z"/><path class="cls-1" d="M5497,356.08h-10.41a34.81,34.81,0,0,0,1.37-8.28V348c0-17.65-14.71-31.9-32.36-31.9h-17.19a31.88,31.88,0,0,0-32.08-32h-23.23a31.88,31.88,0,0,0-32.08,32h-17.19A31.83,31.83,0,0,0,5302,348v-.08a32.85,32.85,0,0,0,.87,8.19h-10.41c-17.65,0-32.46,14.43-32.46,32.07v-.08c0,17.65,14.81,32,32.46,32H5497a32,32,0,0,0,32-32v0A32,32,0,0,0,5497,356.08Z"/><path class="cls-1" d="M4358.38,296.61a34.13,34.13,0,0,0,1.92-10.53h0a32.05,32.05,0,0,0-31.37-32.3,33,33,0,0,0,2-11.71v0a32,32,0,0,0-31.86-32h-23.23a32,32,0,0,0-31.91,32v-.25a28.42,28.42,0,0,0,2,11.21h-39.47c-17.65,0-32.48,14.66-32.48,32.31v.21c0,2.86.79,5.48,1.49,8.48h-34c-17.65,0-32.53,14.34-32.53,32v0c0,17.65,14.89,32.05,32.53,32.05h204.58A32,32,0,0,0,4378,326h0A31.79,31.79,0,0,0,4358.38,296.61Z"/><path class="cls-1" d="M126.39,330.08H101.55a19.88,19.88,0,0,0-19.64,20H67a26.12,26.12,0,0,0,3-11.9v.14a23.23,23.23,0,0,0-23-23.24H23.08A23.29,23.29,0,0,0,0,338.34v-.09a22.91,22.91,0,0,0,23.08,22.83h3.86c-1.11,3-1.94,5.4-1.94,8.27v-.09a20,20,0,0,0,19.84,19.82H81.91c10.8,0,20.09-9.08,20.09-19.88v-.12h24.39A19.48,19.48,0,0,0,146,349.66h0A19.63,19.63,0,0,0,126.39,330.08Z"/><path class="cls-1" d="M1512,356.08h-10.41a34.81,34.81,0,0,0,1.37-8.28V348c0-17.65-14.71-31.9-32.36-31.9h-17.19a31.88,31.88,0,0,0-32.08-32h-23.23a31.88,31.88,0,0,0-32.08,32h-17.19A31.83,31.83,0,0,0,1317,348v-.08a32.85,32.85,0,0,0,.87,8.19h-10.41c-17.65,0-32.46,14.43-32.46,32.07v-.08c0,17.65,14.81,32,32.46,32H1512a32,32,0,0,0,32-32v0A32,32,0,0,0,1512,356.08Z"/><path class="cls-1" d="M508.38,157.61a34.13,34.13,0,0,0,1.92-10.53h0A32.05,32.05,0,0,0,479,114.78a33,33,0,0,0,2-11.71v0a32,32,0,0,0-31.86-32H425.91a32,32,0,0,0-31.91,32v-.25a28.42,28.42,0,0,0,2,11.21H356.48c-17.65,0-32.48,14.66-32.48,32.31v.21c0,2.86.79,5.48,1.49,8.48h-34c-17.65,0-32.53,14.34-32.53,32v0c0,17.65,14.89,32.05,32.53,32.05H496.11A32,32,0,0,0,528,187h0A31.79,31.79,0,0,0,508.38,157.61Z"/></g></svg>