<svg id="Layer_1" data-name="Layer 1" xmlns="http://www.w3.org/2000/svg" viewBox="0 0 16 16"><defs><style>.cls-1{fill:#4d335a;}.cls-2{fill:#447738;}.cls-3{isolation:isolate;}</style></defs><title>gc2</title><path class="cls-1" d="M15.95,9.59l-1.8-.53h0a3.66,3.66,0,0,1-2.72,2.52l-.44.07h-.34a3.66,3.66,0,0,1-1-7.19h0l.07,0h.16l.08,0h0l.1,0h.1a3.69,3.69,0,0,1,.82,0h.22l.1,0h0a3.68,3.68,0,0,1,2,1.17h0a3.67,3.67,0,0,1,.46.65h0l1.29-.7h0l.36-.19a5.55,5.55,0,0,0-3.75-2.74l-.12,0h0a5.51,5.51,0,0,0-1.77,0H9.7l-.24,0h0l-.13,0h0l-.12,0h0l-.1,0H9L9,2.72l-.07,0h0A5.54,5.54,0,0,0,11,13.53h.25a5.54,5.54,0,0,0,4.21-2.81h0A5.55,5.55,0,0,0,15.95,9.59Z"/><path class="cls-2" d="M9.26,8H7.74V9.88h1a3.66,3.66,0,1,1,.1-3.57l1.65-.9A5.54,5.54,0,1,0,11.13,8H9.26Z"/><g class="cls-3"><path class="cls-2" d="M14.76,7.94a.27.27,0,0,0-.15.22h1v.52H14.1V8.16l.08-.23a.93.93,0,0,1,.44-.45,2.21,2.21,0,0,0,.32-.26.49.49,0,0,0,.19-.35.26.26,0,0,0-.52,0H14.1a.77.77,0,0,1,1.55,0,.81.81,0,0,1-.18.5,1.68,1.68,0,0,1-.43.39Z"/></g></svg>