<?xml version="1.0" encoding="utf-8"?>
<!-- Generator: Adobe Illustrator 20.0.0, SVG Export Plug-In . SVG Version: 6.00 Build 0)  -->
<svg version="1.1" id="Layer_1" xmlns="http://www.w3.org/2000/svg" xmlns:xlink="http://www.w3.org/1999/xlink" x="0px" y="0px"
	 viewBox="0 0 1055.1 78.2" style="enable-background:new 0 0 1055.1 78.2;" xml:space="preserve">
<style type="text/css">
	.st0{enable-background:new    ;}
	.st1{fill:#4D335A;}
	.st2{fill:#447738;}
</style>
<title>GC2TextHeader</title>
<g class="st0">
	<path class="st1" d="M30.6,31.2h22.4V33c0,4.1-0.5,7.7-1.4,10.8c-0.9,2.9-2.5,5.6-4.7,8.2c-5,5.7-11.4,8.5-19.2,8.5
		c-7.6,0-14.1-2.7-19.5-8.2C2.7,46.8,0,40.1,0,32.4c0-7.9,2.8-14.6,8.3-20c5.5-5.5,12.2-8.3,20.1-8.3c4.2,0,8.2,0.9,11.9,2.6
		c3.5,1.7,7,4.5,10.4,8.4l-5.8,5.6c-4.5-5.9-9.9-8.9-16.3-8.9c-5.7,0-10.6,2-14.4,5.9c-3.9,3.9-5.8,8.8-5.8,14.6
		c0,6,2.2,11,6.5,14.9c4.1,3.6,8.4,5.4,13.2,5.4c4,0,7.7-1.4,10.9-4.1c3.2-2.7,5-6,5.4-9.8H30.6V31.2z"/>
	<path class="st1" d="M69.8,0.1v59.4h-7.9V0.1H69.8z"/>
	<path class="st1" d="M105,25.2h7.9v34.2H105v-3.6c-3.3,3-6.8,4.6-10.5,4.6c-4.7,0-8.6-1.7-11.7-5.1c-3.1-3.5-4.6-7.9-4.6-13.1
		c0-5.1,1.5-9.4,4.6-12.8c3.1-3.4,6.9-5.1,11.5-5.1c4,0,7.6,1.6,10.7,4.9V25.2z M86.2,42.2c0,3.3,0.9,6,2.6,8
		c1.8,2.1,4.1,3.1,6.8,3.1c2.9,0,5.3-1,7.1-3c1.8-2.1,2.7-4.7,2.7-7.9s-0.9-5.9-2.7-7.9c-1.8-2-4.1-3.1-7-3.1c-2.7,0-5,1-6.8,3.1
		C87.1,36.6,86.2,39.2,86.2,42.2z"/>
	<path class="st1" d="M142.8,31.1l-6.5,3.5c-1-2.1-2.3-3.1-3.8-3.1c-0.7,0-1.3,0.2-1.9,0.7c-0.5,0.5-0.8,1.1-0.8,1.8
		c0,1.3,1.5,2.6,4.6,3.9c4.2,1.8,7,3.5,8.5,5c1.5,1.5,2.2,3.6,2.2,6.1c0,3.3-1.2,6.1-3.7,8.3c-2.4,2.1-5.2,3.2-8.6,3.2
		c-5.7,0-9.8-2.8-12.2-8.4l6.8-3.1c0.9,1.6,1.7,2.7,2.1,3.1c1,0.9,2.1,1.3,3.4,1.3c2.7,0,4-1.2,4-3.7c0-1.4-1-2.7-3.1-3.9
		c-0.8-0.4-1.6-0.8-2.4-1.2c-0.8-0.4-1.6-0.8-2.4-1.2c-2.3-1.1-3.9-2.2-4.9-3.4c-1.2-1.4-1.8-3.3-1.8-5.5c0-3,1-5.4,3.1-7.4
		c2.1-1.9,4.6-2.9,7.6-2.9C137.5,24.3,140.7,26.5,142.8,31.1z"/>
	<path class="st1" d="M172.1,31.1l-6.5,3.5c-1-2.1-2.3-3.1-3.8-3.1c-0.7,0-1.3,0.2-1.9,0.7c-0.5,0.5-0.8,1.1-0.8,1.8
		c0,1.3,1.5,2.6,4.6,3.9c4.2,1.8,7,3.5,8.5,5c1.5,1.5,2.2,3.6,2.2,6.1c0,3.3-1.2,6.1-3.7,8.3c-2.4,2.1-5.2,3.2-8.6,3.2
		c-5.7,0-9.8-2.8-12.2-8.4l6.8-3.1c0.9,1.6,1.7,2.7,2.1,3.1c1,0.9,2.1,1.3,3.4,1.3c2.7,0,4-1.2,4-3.7c0-1.4-1-2.7-3.1-3.9
		c-0.8-0.4-1.6-0.8-2.4-1.2c-0.8-0.4-1.6-0.8-2.4-1.2c-2.3-1.1-3.9-2.2-4.9-3.4c-1.2-1.4-1.8-3.3-1.8-5.5c0-3,1-5.4,3.1-7.4
		c2.1-1.9,4.6-2.9,7.6-2.9C166.7,24.3,169.9,26.5,172.1,31.1z"/>
	<path class="st1" d="M181.4,25.2h7.9v3.2c1.5-1.6,2.8-2.7,3.9-3.2c1.1-0.6,2.6-0.9,4.3-0.9c3.9,0,6.9,1.7,9.2,5.1
		c2.5-3.4,5.8-5.1,10.1-5.1c7.7,0,11.6,4.7,11.6,14v21.2h-7.9v-19c0-3.3-0.4-5.6-1.2-7c-0.8-1.4-2.2-2.1-4-2.1
		c-2.2,0-3.8,0.8-4.8,2.5c-1,1.6-1.5,4.3-1.5,7.9v17.7H201V40.6c0-6.1-1.8-9.1-5.3-9.1c-2.2,0-3.8,0.8-4.9,2.5s-1.5,4.3-1.5,7.9
		v17.7h-7.9V25.2z"/>
	<path class="st1" d="M263.6,25.2h7.9v34.2h-7.9v-3.6c-3.3,3-6.8,4.6-10.5,4.6c-4.7,0-8.6-1.7-11.7-5.1c-3.1-3.5-4.6-7.9-4.6-13.1
		c0-5.1,1.5-9.4,4.6-12.8c3.1-3.4,6.9-5.1,11.5-5.1c4,0,7.6,1.6,10.7,4.9V25.2z M244.8,42.2c0,3.3,0.9,6,2.6,8
		c1.8,2.1,4.1,3.1,6.8,3.1c2.9,0,5.3-1,7.1-3c1.8-2.1,2.7-4.7,2.7-7.9s-0.9-5.9-2.7-7.9c-1.8-2-4.1-3.1-7-3.1c-2.7,0-5,1-6.8,3.1
		C245.7,36.6,244.8,39.2,244.8,42.2z"/>
	<path class="st1" d="M281.5,25.2h7.9v3.2c2.8-2.7,5.9-4.1,9.4-4.1c4,0,7.1,1.3,9.3,3.8c1.9,2.1,2.9,5.6,2.9,10.4v21H303V40.4
		c0-3.4-0.5-5.7-1.4-7c-0.9-1.3-2.6-2-5-2c-2.6,0-4.5,0.9-5.6,2.6c-1.1,1.7-1.6,4.7-1.6,9v16.5h-7.9V25.2z"/>
	<path class="st1" d="M384.8,8.1v9.7c-4.7-4-9.6-5.9-14.7-5.9c-5.6,0-10.3,2-14.1,6c-3.8,4-5.8,8.9-5.8,14.6
		c0,5.7,1.9,10.5,5.8,14.4s8.6,5.9,14.1,5.9c2.9,0,5.3-0.5,7.3-1.4c1.1-0.5,2.3-1.1,3.5-1.9s2.5-1.8,3.8-2.9v9.9
		c-4.7,2.7-9.6,4-14.8,4c-7.8,0-14.4-2.7-19.9-8.1c-5.5-5.5-8.2-12-8.2-19.8c0-6.9,2.3-13.1,6.9-18.5c5.6-6.6,12.9-9.9,21.8-9.9
		C375.6,4.1,380.3,5.5,384.8,8.1z"/>
	<path class="st1" d="M390.4,42.1c0-4.9,1.8-9.2,5.3-12.6s7.9-5.2,12.9-5.2c5.1,0,9.4,1.7,13,5.2c3.5,3.5,5.3,7.8,5.3,12.9
		c0,5.1-1.8,9.4-5.3,12.9c-3.6,3.4-7.9,5.2-13.1,5.2c-5.1,0-9.4-1.8-12.9-5.3C392.1,51.7,390.4,47.4,390.4,42.1z M398.5,42.2
		c0,3.4,0.9,6.1,2.7,8.1c1.9,2,4.3,3,7.4,3c3.1,0,5.6-1,7.4-3s2.8-4.7,2.8-8s-0.9-6-2.8-8c-1.9-2-4.3-3-7.4-3c-3,0-5.5,1-7.3,3
		S398.5,39.1,398.5,42.2z"/>
	<path class="st1" d="M458.9,25.2h7.9v34.2h-7.9v-3.6c-3.3,3-6.8,4.6-10.5,4.6c-4.7,0-8.6-1.7-11.7-5.1c-3.1-3.5-4.6-7.9-4.6-13.1
		c0-5.1,1.5-9.4,4.6-12.8s6.9-5.1,11.5-5.1c4,0,7.6,1.6,10.7,4.9V25.2z M440.1,42.2c0,3.3,0.9,6,2.6,8c1.8,2.1,4.1,3.1,6.8,3.1
		c2.9,0,5.3-1,7.1-3c1.8-2.1,2.7-4.7,2.7-7.9s-0.9-5.9-2.7-7.9c-1.8-2-4.1-3.1-7-3.1c-2.7,0-5,1-6.8,3.1
		C441,36.6,440.1,39.2,440.1,42.2z"/>
	<path class="st1" d="M501.8,26.7v10.5c-1.8-2.2-3.4-3.7-4.9-4.5c-1.4-0.8-3.1-1.3-5-1.3c-3,0-5.4,1-7.4,3.1s-3,4.7-3,7.8
		c0,3.2,0.9,5.8,2.8,7.9c1.9,2.1,4.4,3.1,7.3,3.1c1.9,0,3.6-0.4,5-1.2c1.4-0.8,3.1-2.3,5-4.6V58c-3.2,1.7-6.4,2.5-9.6,2.5
		c-5.3,0-9.7-1.7-13.3-5.1c-3.6-3.4-5.3-7.7-5.3-12.8s1.8-9.4,5.4-12.9s8-5.3,13.3-5.3C495.6,24.3,498.8,25.1,501.8,26.7z"/>
	<path class="st1" d="M509.6,0.1h7.9v28c2.8-2.5,5.9-3.8,9.3-3.8c3.9,0,7,1.3,9.3,3.8c2,2.2,3,5.7,3,10.4v21h-7.9V39.2
		c0-2.7-0.5-4.7-1.5-6s-2.5-1.8-4.7-1.8c-2.8,0-4.7,0.9-5.8,2.6c-1.1,1.7-1.7,4.7-1.7,8.9v16.6h-7.9V0.1z"/>
	<path class="st1" d="M546.3,11c0-1.4,0.5-2.6,1.5-3.6s2.2-1.5,3.6-1.5c1.4,0,2.6,0.5,3.7,1.5c1,1,1.5,2.2,1.5,3.6s-0.5,2.6-1.5,3.7
		c-1,1-2.2,1.5-3.6,1.5s-2.6-0.5-3.7-1.5S546.3,12.4,546.3,11z M555.4,25.2v34.2h-7.9V25.2H555.4z"/>
	<path class="st1" d="M563.7,25.2h7.9v3.2c2.8-2.7,5.9-4.1,9.4-4.1c4,0,7.1,1.3,9.3,3.8c1.9,2.1,2.9,5.6,2.9,10.4v21h-7.9V40.4
		c0-3.4-0.5-5.7-1.4-7c-0.9-1.3-2.6-2-5-2c-2.6,0-4.5,0.9-5.6,2.6c-1.1,1.7-1.6,4.7-1.6,9v16.5h-7.9V25.2z"/>
	<path class="st1" d="M634.7,58.7c0,1.6-0.1,3-0.2,4.3s-0.3,2.3-0.4,3.3c-0.6,2.6-1.7,4.8-3.3,6.6c-3.1,3.6-7.3,5.3-12.8,5.3
		c-4.6,0-8.3-1.2-11.3-3.7c-3-2.5-4.8-6.1-5.3-10.5h7.9c0.3,1.7,0.8,3,1.5,3.9c1.6,2.1,4,3.2,7.2,3.2c5.8,0,8.7-3.5,8.7-10.6v-4.8
		c-3.1,3.2-6.8,4.8-10.9,4.8c-4.7,0-8.5-1.7-11.5-5.1c-3-3.4-4.5-7.7-4.5-12.8c0-5,1.4-9.2,4.2-12.7c3-3.7,7-5.6,11.9-5.6
		c4.3,0,7.9,1.6,10.8,4.8v-3.9h7.9V58.7z M627.1,42.4c0-3.3-0.9-6-2.7-8c-1.8-2-4.1-3.1-6.9-3.1c-3,0-5.4,1.1-7.1,3.3
		c-1.6,2-2.4,4.6-2.4,7.7c0,3.1,0.8,5.7,2.4,7.7c1.7,2.2,4.1,3.3,7.1,3.3s5.4-1.1,7.2-3.3C626.3,48.1,627.1,45.5,627.1,42.4z"/>
</g>
<g class="st0">
	<path class="st1" d="M774.7,8.1v9.7c-4.7-4-9.6-5.9-14.7-5.9c-5.6,0-10.3,2-14.1,6c-3.8,4-5.8,8.9-5.8,14.6
		c0,5.7,1.9,10.5,5.8,14.4s8.6,5.9,14.1,5.9c2.9,0,5.3-0.5,7.3-1.4c1.1-0.5,2.3-1.1,3.5-1.9s2.5-1.8,3.8-2.9v9.9
		c-4.7,2.7-9.6,4-14.8,4c-7.8,0-14.4-2.7-19.9-8.1c-5.5-5.5-8.2-12-8.2-19.8c0-6.9,2.3-13.1,6.9-18.5c5.6-6.6,12.9-9.9,21.8-9.9
		C765.5,4.1,770.2,5.5,774.7,8.1z"/>
	<path class="st1" d="M781.1,42.1c0-4.9,1.8-9.2,5.3-12.6s7.9-5.2,12.9-5.2c5.1,0,9.4,1.7,13,5.2c3.5,3.5,5.3,7.8,5.3,12.9
		c0,5.1-1.8,9.4-5.3,12.9c-3.6,3.4-7.9,5.2-13.1,5.2c-5.1,0-9.4-1.8-12.9-5.3C782.8,51.7,781.1,47.4,781.1,42.1z M789.2,42.2
		c0,3.4,0.9,6.1,2.7,8.1c1.9,2,4.3,3,7.4,3c3.1,0,5.6-1,7.4-3s2.8-4.7,2.8-8s-0.9-6-2.8-8c-1.9-2-4.3-3-7.4-3c-3,0-5.5,1-7.3,3
		S789.2,39.1,789.2,42.2z"/>
	<path class="st1" d="M825.1,25.2h7.9v3.2c2.8-2.7,5.9-4.1,9.4-4.1c4,0,7.1,1.3,9.3,3.8c1.9,2.1,2.9,5.6,2.9,10.4v21h-7.9V40.4
		c0-3.4-0.5-5.7-1.4-7c-0.9-1.3-2.6-2-5-2c-2.6,0-4.5,0.9-5.6,2.6c-1.1,1.7-1.6,4.7-1.6,9v16.5h-7.9V25.2z"/>
	<path class="st1" d="M883.6,31.1l-6.5,3.5c-1-2.1-2.3-3.1-3.8-3.1c-0.7,0-1.3,0.2-1.9,0.7c-0.5,0.5-0.8,1.1-0.8,1.8
		c0,1.3,1.5,2.6,4.6,3.9c4.2,1.8,7,3.5,8.5,5c1.5,1.5,2.2,3.6,2.2,6.1c0,3.3-1.2,6.1-3.7,8.3c-2.4,2.1-5.2,3.2-8.6,3.2
		c-5.7,0-9.8-2.8-12.2-8.4l6.8-3.1c0.9,1.6,1.7,2.7,2.1,3.1c1,0.9,2.1,1.3,3.4,1.3c2.7,0,4-1.2,4-3.7c0-1.4-1-2.7-3.1-3.9
		c-0.8-0.4-1.6-0.8-2.4-1.2c-0.8-0.4-1.6-0.8-2.4-1.2c-2.3-1.1-3.9-2.2-4.9-3.4c-1.2-1.4-1.8-3.3-1.8-5.5c0-3,1-5.4,3.1-7.4
		c2.1-1.9,4.6-2.9,7.6-2.9C878.2,24.3,881.5,26.5,883.6,31.1z"/>
	<path class="st1" d="M900,25.2v19.7c0,5.7,2.2,8.5,6.7,8.5s6.7-2.8,6.7-8.5V25.2h7.9v19.8c0,2.7-0.3,5.1-1,7.1
		c-0.7,1.8-1.8,3.4-3.4,4.8c-2.7,2.3-6.1,3.5-10.2,3.5c-4.1,0-7.5-1.2-10.2-3.5c-1.6-1.4-2.8-3-3.5-4.8c-0.7-1.6-1-4-1-7.1V25.2H900
		z"/>
	<path class="st1" d="M938.4,0.1v59.4h-7.9V0.1H938.4z"/>
	<path class="st1" d="M955.7,32.6v26.9h-7.9V32.6h-3.4v-7.4h3.4V12.7h7.9v12.6h6.2v7.4H955.7z"/>
	<path class="st1" d="M965.2,11c0-1.4,0.5-2.6,1.5-3.6c1-1,2.2-1.5,3.6-1.5c1.4,0,2.6,0.5,3.7,1.5c1,1,1.5,2.2,1.5,3.6
		s-0.5,2.6-1.5,3.7c-1,1-2.2,1.5-3.6,1.5c-1.4,0-2.6-0.5-3.7-1.5C965.7,13.7,965.2,12.4,965.2,11z M974.3,25.2v34.2h-7.9V25.2H974.3
		z"/>
	<path class="st1" d="M983.4,25.2h7.9v3.2c2.8-2.7,5.9-4.1,9.4-4.1c4,0,7.1,1.3,9.3,3.8c1.9,2.1,2.9,5.6,2.9,10.4v21h-7.9V40.4
		c0-3.4-0.5-5.7-1.4-7c-0.9-1.3-2.6-2-5-2c-2.6,0-4.5,0.9-5.6,2.6c-1.1,1.7-1.6,4.7-1.6,9v16.5h-7.9V25.2z"/>
	<path class="st1" d="M1055.1,58.7c0,1.6-0.1,3-0.2,4.3s-0.3,2.3-0.4,3.3c-0.6,2.6-1.7,4.8-3.3,6.6c-3.1,3.6-7.3,5.3-12.8,5.3
		c-4.6,0-8.3-1.2-11.3-3.7c-3-2.5-4.8-6.1-5.3-10.5h7.9c0.3,1.7,0.8,3,1.5,3.9c1.6,2.1,4,3.2,7.2,3.2c5.8,0,8.7-3.5,8.7-10.6v-4.8
		c-3.1,3.2-6.8,4.8-10.9,4.8c-4.7,0-8.5-1.7-11.5-5.1c-3-3.4-4.5-7.7-4.5-12.8c0-5,1.4-9.2,4.2-12.7c3-3.7,7-5.6,11.9-5.6
		c4.3,0,7.9,1.6,10.8,4.8v-3.9h7.9V58.7z M1047.6,42.4c0-3.3-0.9-6-2.7-8c-1.8-2-4.1-3.1-6.9-3.1c-3,0-5.4,1.1-7.1,3.3
		c-1.6,2-2.4,4.6-2.4,7.7c0,3.1,0.8,5.7,2.4,7.7c1.7,2.2,4.1,3.3,7.1,3.3s5.4-1.1,7.2-3.3C1046.7,48.1,1047.6,45.5,1047.6,42.4z"/>
</g>
<g class="st0">
	<path class="st2" d="M663.7,42.1v-6.8h16.1V19.5h6.8v15.8h16.1v6.8h-16.1V58h-6.8V42.1H663.7z"/>
</g>
</svg>
