<svg id="Layer_4" data-name="Layer 4" xmlns="http://www.w3.org/2000/svg" viewBox="0 0 421 421"><defs><style>.cls-1{fill:#fff;}</style></defs><title>linkedInIcon</title><path class="cls-1" d="M421,30.31A30.31,30.31,0,0,0,390.69,0H30.31A30.31,30.31,0,0,0,0,30.31V390.69A30.31,30.31,0,0,0,30.31,421H390.69A30.31,30.31,0,0,0,421,390.69ZM125,355H57V157h68ZM93.14,132.65A36.63,36.63,0,1,1,129.77,96,36.63,36.63,0,0,1,93.14,132.65ZM363,356H300V253.38s-1-50.54-33.79-48.76C243.15,205.88,232,227.21,230,234V356H161V157h69v27.34s16.56-33.49,60.31-31.44,59.3,31.44,62,37.6S363,212.32,363,227Z"/></svg>