<svg id="Layer_4" data-name="Layer 4" xmlns="http://www.w3.org/2000/svg" viewBox="0 0 513.75 513.75"><defs><style>.cls-1{fill:#4d335a;}.cls-2{fill:#fff;}</style></defs><title>numberIcon</title><circle class="cls-1" cx="256.87" cy="256.87" r="256.87"/><path class="cls-2" d="M340,82.33s-29.87,69-29.87,84.45,4,19.3,14.93,29.87S339.19,207.23,340,213.4s-.47,11-6.63,20.27S309.62,272,297.28,283.46s-37,32.61-46.27,37.89-23.79,15-29.08,15-24.68-20.71-24.68-20.71-6.61-11-15.42-12.34-22.47,4.41-22.47,4.41-61.25,19.83-63.45,21.15a22.82,22.82,0,0,0-10.13,10.58c-3.53,7.05-6.17,33,0,41a110.11,110.11,0,0,0,37.45,31.73c19.83,10.13,33.93,9.69,40.1,10.58s14.1,1.76,22,0,29.52-6.61,37-11.46,59.49-22.47,109.72-75.35,74.91-94.3,84.6-117.21,11-48,11.9-57.72-5.29-32.17-12.78-45.39-23.35-37.89-47.59-37.45S344.92,79.5,340,82.33Z"/></svg>